# xmcd CD database file
#
# Track frame offsets:
#	182
#	12495
#	32952
#	49375
#	64157
#	79777
#	93010
#	104907
#	117945
#	128235
#	147262
#	159657
#	173587
#	184630
#	200835
#	214807
#
# Disc length: 2981 seconds
#
# Revision: 0
# Processed by: cddbd v1.4PL0 Copyright (c) Steve Scherf et al.
# Submitted via: CDex 1.40Release
#
DISCID=eb0ba310
DTITLE=Verschiedene - The Queens of Country Music Together
DYEAR=1900
DGENRE=Country
TTITLE0=I never Promised you a Rose Garden
TTITLE1=Texas when I Die
TTITLE2=Someone is falling in Love
TTITLE3=Chaines of Love
TTITLE4=You`re gettin`to me Again
TTITLE5=It`s what you don`t know
TTITLE6=Dixie Man
TTITLE7=Stand by your Man
TTITLE8=The Danger of a stranger
TTITLE9=Harper Valley
TTITLE10=Where is the fire
TTITLE11=What are we doin`ìn Love
TTITLE12=Country Boy`s Song
TTITLE13=Fools for each Other
TTITLE14=Long Hard Fall
TTITLE15=It`s Country Time
EXTD=ID3G: 2
EXTT0=
EXTT1=
EXTT2=
EXTT3=
EXTT4=
EXTT5=
EXTT6=
EXTT7=
EXTT8=
EXTT9=
EXTT10=
EXTT11=
EXTT12=
EXTT13=
EXTT14=
EXTT15=
PLAYORDER=
